<svg id="e7EXQYC5DhG1" xmlns="http://www.w3.org/2000/svg" xmlns:xlink="http://www.w3.org/1999/xlink" viewBox="0 0 300 300" shape-rendering="geometricPrecision" text-rendering="geometricPrecision"><path d="M92.327766,199.895616l57.672241-72.546973l44.624211,76.722337L269.258876,18.789145l-13.048021-5.74113l13.048021-5.219208l9.916491,5.219208-84.953879,218.991334-44.221491-89.555009-57.672235,86.11691L10.908144,18.789144L92.327766,199.895616Z" transform="translate(-5.454072 16.649271)" fill="#f3fb0b" stroke-width="0.6"/><path d="M10.908142,19.832985L92.327764,266.389984L150,175.365344l44.624212,91.02464l94.989566-247.60084l10.386221,4.697285-8.82046-23.486431L269.25887,7.828807l9.916491,5.219207q-84.029228,219.20668-84.551149,215.553236t-44.624218-86.11691L92.327759,228.60125L10.908142,19.832985Z" transform="translate(-5.45407 16.649271)" fill="#de0ef8" stroke-width="0.6"/><path d="M5.454072,35.438415L86.873689,210.484558l57.187845-74.224135l45.108612,74.224135l69.115402-172.75026-12.700797-5.709533l5.172032-2.327479L263.8048,35.438415L189.170142,220.720251l-45.108608-77.045263-57.18784,77.045263L5.454072,35.438415Z" transform="translate(.48439 0.322926)" fill="#11fbe9" stroke-width="0.6"/></svg>
